<svg xmlns="http://www.w3.org/2000/svg" width="900" height="330" viewBox="0 0 900 330"><rect width="900" height="330" fill="white"/><text x="450" y="28" text-anchor="middle" font-family="Arial" font-size="20" font-weight="bold" fill="#172033">Liberação progressiva do sistema</text><g font-family="Arial" font-size="15" text-anchor="middle"><rect x="45" y="120" width="160" height="70" rx="8" fill="#eef2f7" stroke="#17365d" stroke-width="3"/><text x="125" y="150">Inspeção e</text><text x="125" y="172">documentos</text><rect x="265" y="120" width="160" height="70" rx="8" fill="#eef2f7" stroke="#17365d" stroke-width="3"/><text x="345" y="150">Ensaios</text><text x="345" y="172">sem tensão</text><rect x="485" y="120" width="160" height="70" rx="8" fill="#fff0b8" stroke="#8a6d00" stroke-width="3"/><text x="565" y="150">Liberação</text><text x="565" y="172">controlada</text><rect x="705" y="120" width="150" height="70" rx="8" fill="#e4f5df" stroke="#0b5e42" stroke-width="3"/><text x="780" y="150">Testes</text><text x="780" y="172">energizados</text></g><g stroke="#17365d" stroke-width="3" fill="#17365d"><path d="M205 155h55"/><path d="M255 148l12 7-12 7z"/><path d="M425 155h55"/><path d="M475 148l12 7-12 7z"/><path d="M645 155h55"/><path d="M695 148l12 7-12 7z"/></g></svg>