<svg xmlns="http://www.w3.org/2000/svg" width="900" height="360" viewBox="0 0 900 360"><rect width="900" height="360" fill="white"/><text x="450" y="28" text-anchor="middle" font-family="Arial" font-size="20" font-weight="bold">Matriz simplificada de causa e efeito</text><rect x="80" y="60" width="740" height="240" fill="#eef2f7" stroke="#17365d" stroke-width="3"/><g stroke="#829ab8" stroke-width="2"><path d="M80 115h740M80 175h740M80 235h740M320 60v240M485 60v240M650 60v240"/></g><g font-family="Arial" font-size="15" text-anchor="middle"><text x="200" y="95">Evento</text><text x="402" y="88">Alarme</text><text x="402" y="106">geral</text><text x="567" y="88">Parar</text><text x="567" y="106">ventilação</text><text x="735" y="88">Liberar</text><text x="735" y="106">porta</text><text x="200" y="150">Detector zona 1</text><text x="402" y="150">X</text><text x="567" y="150">X</text><text x="735" y="150">X</text><text x="200" y="210">Acionador zona 2</text><text x="402" y="210">X</text><text x="567" y="210">—</text><text x="735" y="210">X</text><text x="200" y="270">Falha de laço</text><text x="402" y="270">—</text><text x="567" y="270">—</text><text x="735" y="270">—</text></g></svg>