<svg xmlns="http://www.w3.org/2000/svg" width="900" height="330" viewBox="0 0 900 330"><rect width="900" height="330" fill="white"/><text x="450" y="28" text-anchor="middle" font-family="Arial" font-size="20" font-weight="bold">Resposta ao parcelamento irregular</text><g font-family="Arial" font-size="15" text-anchor="middle"><rect x="35" y="125" width="150" height="70" rx="8" fill="#ffd6d2" stroke="#c72218" stroke-width="3"/><text x="110" y="155">Constatar e</text><text x="110" y="176">registrar</text><rect x="250" y="125" width="150" height="70" rx="8" fill="#fff0b8" stroke="#8a6d00" stroke-width="3"/><text x="325" y="155">Conter risco e</text><text x="325" y="176">continuidade</text><rect x="465" y="125" width="150" height="70" rx="8" fill="#d8ecff" stroke="#17365d" stroke-width="3"/><text x="540" y="155">Coordenar</text><text x="540" y="176">competências</text><rect x="680" y="125" width="175" height="70" rx="8" fill="#e4f5df" stroke="#0b5e42" stroke-width="3"/><text x="767" y="155">Responsabilizar</text><text x="767" y="176">ou regularizar</text></g><g stroke="#17365d" stroke-width="3" fill="#17365d"><path d="M185 160h58M400 160h58M615 160h58"/><path d="M235 153l14 7-14 7M450 153l14 7-14 7M665 153l14 7-14 7"/></g></svg>